<?xml version="1.0" encoding="UTF-8" standalone="no"?>
<!DOCTYPE svg PUBLIC "-//W3C//DTD SVG 1.1//EN" "http://www.w3.org/Graphics/SVG/1.1/DTD/svg11.dtd">
<svg width="100%" height="100%" viewBox="0 0 300 300" version="1.1" xmlns="http://www.w3.org/2000/svg" xmlns:xlink="http://www.w3.org/1999/xlink" xml:space="preserve" xmlns:serif="http://www.serif.com/" style="fill-rule:evenodd;clip-rule:evenodd;stroke-linejoin:round;stroke-miterlimit:2;">
    <g transform="matrix(1,0,0,1,-922.938,0)">
        <g id="favicon" transform="matrix(0.375,0,0,0.5,922.938,0)">
            <rect x="0" y="0" width="800" height="600" style="fill:none;"/>
            <clipPath id="_clip1">
                <rect x="0" y="0" width="800" height="600"/>
            </clipPath>
            <g clip-path="url(#_clip1)">
                <g transform="matrix(2.94081,0,0,2.44421,-2745.9,-67.9695)">
                    <path d="M1203.49,66.662C1203.49,46.347 1185.21,29.854 1162.7,29.854L976.78,29.854C954.267,29.854 935.989,46.347 935.989,66.662L935.989,234.433C935.989,254.748 954.267,271.241 976.78,271.241L1162.7,271.241C1185.21,271.241 1203.49,254.748 1203.49,234.433L1203.49,66.662Z" style="fill:rgb(139,141,143);"/>
                </g>
                <g transform="matrix(89.3744,1.64062e-29,-1.02083e-28,67.0308,-15622.6,-7107.77)">
                    <g id="font">
                        <path d="M178.216,108.377C178.071,108.594 177.882,108.858 177.649,109.168C177.416,109.477 177.189,109.801 176.967,110.139C176.746,110.477 176.553,110.809 176.388,111.134C176.223,111.46 176.141,111.752 176.141,112.009C176.141,112.146 176.171,112.263 176.231,112.359C176.292,112.456 176.394,112.504 176.539,112.504C176.837,112.504 177.15,112.341 177.48,112.015C177.81,111.689 178.18,111.201 178.59,110.549C178.727,110.324 178.862,110.103 178.994,109.886C179.127,109.668 179.25,109.467 179.362,109.282C179.475,109.097 179.578,108.93 179.67,108.781C179.763,108.633 179.837,108.514 179.893,108.426L181.184,108.377C181.048,108.594 180.863,108.866 180.629,109.192C180.396,109.518 180.165,109.857 179.936,110.211C179.706,110.565 179.509,110.911 179.344,111.249C179.179,111.587 179.097,111.88 179.097,112.13C179.097,112.283 179.133,112.407 179.206,112.504C179.278,112.6 179.391,112.649 179.543,112.649C179.753,112.649 179.962,112.592 180.171,112.48C180.38,112.367 180.581,112.22 180.774,112.039C180.967,111.858 181.148,111.651 181.317,111.418C181.486,111.185 181.635,110.947 181.764,110.706C181.892,110.465 181.997,110.227 182.077,109.994C182.158,109.761 182.202,109.552 182.21,109.367C182.162,109.294 182.119,109.214 182.083,109.125C182.047,109.037 182.029,108.936 182.029,108.824C182.029,108.663 182.073,108.524 182.162,108.407C182.25,108.291 182.387,108.232 182.572,108.232C182.709,108.232 182.819,108.263 182.904,108.323C182.988,108.383 183.055,108.46 183.103,108.552C183.151,108.645 183.183,108.749 183.199,108.866C183.215,108.983 183.224,109.097 183.224,109.21C183.224,109.298 183.217,109.405 183.205,109.53C183.193,109.654 183.179,109.773 183.163,109.886C183.429,110.103 183.71,110.211 184.008,110.211C184.281,110.211 184.521,110.135 184.726,109.982C184.931,109.829 185.11,109.652 185.263,109.451L185.347,109.511C185.186,109.737 184.991,109.934 184.762,110.103C184.533,110.272 184.281,110.356 184.008,110.356C183.831,110.356 183.67,110.326 183.525,110.266C183.38,110.205 183.252,110.131 183.139,110.042C183.018,110.428 182.835,110.79 182.59,111.128C182.345,111.466 182.059,111.758 181.733,112.003C181.408,112.248 181.052,112.441 180.666,112.582C180.279,112.723 179.885,112.793 179.483,112.793C179.049,112.793 178.731,112.685 178.53,112.468C178.329,112.25 178.228,111.973 178.228,111.635C178.228,111.563 178.232,111.494 178.24,111.43C178.248,111.366 178.26,111.313 178.277,111.273L178.252,111.249C178.124,111.442 177.981,111.631 177.824,111.816C177.667,112.001 177.498,112.166 177.317,112.311C177.136,112.456 176.941,112.572 176.732,112.661C176.523,112.749 176.298,112.793 176.056,112.793C175.751,112.793 175.527,112.695 175.387,112.498C175.246,112.301 175.176,112.061 175.176,111.78C175.176,111.522 175.242,111.243 175.375,110.941C175.507,110.64 175.666,110.338 175.851,110.036C176.036,109.735 176.229,109.443 176.43,109.162C176.632,108.88 176.8,108.635 176.937,108.426L178.216,108.377Z" style="fill:white;fill-rule:nonzero;"/>
                    </g>
                </g>
            </g>
        </g>
    </g>
</svg>
