<?xml version="1.0" encoding="UTF-8" standalone="no"?>
<!DOCTYPE svg PUBLIC "-//W3C//DTD SVG 1.1//EN" "http://www.w3.org/Graphics/SVG/1.1/DTD/svg11.dtd">
<svg width="100%" height="100%" viewBox="0 0 1067 509" version="1.1" xmlns="http://www.w3.org/2000/svg" xmlns:xlink="http://www.w3.org/1999/xlink" xml:space="preserve" xmlns:serif="http://www.serif.com/" style="fill-rule:evenodd;clip-rule:evenodd;stroke-linejoin:round;stroke-miterlimit:2;">
    <g transform="matrix(1.33333,0,0,1.33333,0,0)">
        <g id="Artboard1" transform="matrix(1,0,0,0.635981,0,0)">
            <rect x="0" y="0" width="800" height="600" style="fill:none;"/>
            <g id="font" transform="matrix(1,0,0,1.57237,4.54747e-13,-3.57517e-13)">
                <g transform="matrix(33.0314,8.08466e-30,-3.77284e-29,33.0314,-5794.21,-3404.4)">
                    <path d="M175.525,108.703C175.727,108.679 175.912,108.629 176.081,108.552C176.249,108.476 176.392,108.383 176.509,108.275C176.625,108.166 176.716,108.047 176.78,107.919C176.845,107.79 176.877,107.661 176.877,107.533C176.877,107.412 176.861,107.267 176.829,107.098C176.796,106.929 176.762,106.756 176.726,106.579C176.69,106.402 176.658,106.23 176.63,106.061C176.601,105.892 176.587,105.747 176.587,105.626C176.587,105.313 176.648,105.025 176.768,104.764C176.889,104.502 177.06,104.271 177.281,104.07C177.502,103.869 177.764,103.706 178.065,103.581C178.367,103.456 178.699,103.374 179.061,103.334L179.061,103.539C178.602,103.643 178.268,103.812 178.059,104.046C177.85,104.279 177.746,104.593 177.746,104.987C177.746,105.099 177.758,105.236 177.782,105.397C177.806,105.558 177.834,105.723 177.866,105.892C177.898,106.061 177.927,106.228 177.951,106.392C177.975,106.557 177.987,106.696 177.987,106.809C177.987,107.227 177.836,107.619 177.534,107.985C177.233,108.351 176.804,108.635 176.249,108.836C176.804,109.037 177.233,109.32 177.534,109.686C177.836,110.052 177.987,110.445 177.987,110.863C177.987,110.984 177.975,111.124 177.951,111.285C177.927,111.446 177.898,111.611 177.866,111.78C177.834,111.949 177.806,112.112 177.782,112.269C177.758,112.425 177.746,112.564 177.746,112.685C177.746,113.095 177.85,113.415 178.059,113.644C178.268,113.873 178.602,114.04 179.061,114.145L179.061,114.35C178.699,114.318 178.367,114.241 178.065,114.121C177.764,114 177.504,113.841 177.287,113.644C177.07,113.447 176.901,113.214 176.78,112.944C176.66,112.675 176.599,112.371 176.599,112.033C176.599,111.905 176.613,111.756 176.642,111.587C176.67,111.418 176.702,111.245 176.738,111.068C176.774,110.891 176.806,110.722 176.835,110.561C176.863,110.4 176.877,110.26 176.877,110.139C176.877,110.01 176.845,109.881 176.78,109.753C176.716,109.624 176.625,109.505 176.509,109.397C176.392,109.288 176.249,109.196 176.081,109.119C175.912,109.043 175.727,108.993 175.525,108.969L175.525,108.703Z" style="fill:white;fill-rule:nonzero;"/>
                    <path d="M199.525,108.969C199.315,108.993 199.128,109.043 198.964,109.119C198.799,109.196 198.658,109.288 198.541,109.397C198.425,109.505 198.334,109.624 198.27,109.753C198.205,109.881 198.173,110.01 198.173,110.139C198.173,110.26 198.187,110.402 198.215,110.567C198.244,110.732 198.276,110.901 198.312,111.074C198.348,111.247 198.38,111.418 198.408,111.587C198.437,111.756 198.451,111.905 198.451,112.033C198.451,112.371 198.388,112.675 198.264,112.944C198.139,113.214 197.968,113.447 197.751,113.644C197.534,113.841 197.274,114 196.973,114.121C196.671,114.241 196.343,114.318 195.989,114.35L195.989,114.145C196.448,114.04 196.782,113.873 196.991,113.644C197.2,113.415 197.304,113.095 197.304,112.685C197.304,112.572 197.292,112.435 197.268,112.275C197.244,112.114 197.216,111.949 197.184,111.78C197.152,111.611 197.123,111.444 197.099,111.279C197.075,111.114 197.063,110.975 197.063,110.863C197.063,110.445 197.214,110.052 197.516,109.686C197.817,109.32 198.246,109.037 198.801,108.836C198.246,108.635 197.817,108.351 197.516,107.985C197.214,107.619 197.063,107.227 197.063,106.809C197.063,106.688 197.075,106.549 197.099,106.392C197.123,106.236 197.152,106.073 197.184,105.904C197.216,105.735 197.244,105.57 197.268,105.409C197.292,105.248 197.304,105.107 197.304,104.987C197.304,104.593 197.2,104.279 196.991,104.046C196.782,103.812 196.448,103.643 195.989,103.539L195.989,103.334C196.351,103.374 196.683,103.456 196.985,103.581C197.286,103.706 197.546,103.869 197.763,104.07C197.98,104.271 198.151,104.502 198.276,104.764C198.4,105.025 198.463,105.313 198.463,105.626C198.463,105.747 198.447,105.892 198.415,106.061C198.382,106.23 198.348,106.402 198.312,106.579C198.276,106.756 198.244,106.929 198.215,107.098C198.187,107.267 198.173,107.412 198.173,107.533C198.173,107.661 198.205,107.79 198.27,107.919C198.334,108.047 198.425,108.166 198.541,108.275C198.658,108.383 198.799,108.476 198.964,108.552C199.128,108.629 199.315,108.679 199.525,108.703L199.525,108.969Z" style="fill:white;fill-rule:nonzero;"/>
                </g>
                <g transform="matrix(56.0098,1.37088e-29,-6.39744e-29,56.0098,-9677.6,-5991.52)">
                    <path d="M178.216,108.377C178.071,108.594 177.882,108.858 177.649,109.168C177.416,109.477 177.189,109.801 176.967,110.139C176.746,110.477 176.553,110.809 176.388,111.134C176.223,111.46 176.141,111.752 176.141,112.009C176.141,112.146 176.171,112.263 176.231,112.359C176.292,112.456 176.394,112.504 176.539,112.504C176.837,112.504 177.15,112.341 177.48,112.015C177.81,111.689 178.18,111.201 178.59,110.549C178.727,110.324 178.862,110.103 178.994,109.886C179.127,109.668 179.25,109.467 179.362,109.282C179.475,109.097 179.578,108.93 179.67,108.781C179.763,108.633 179.837,108.514 179.893,108.426L181.184,108.377C181.048,108.594 180.863,108.866 180.629,109.192C180.396,109.518 180.165,109.857 179.936,110.211C179.706,110.565 179.509,110.911 179.344,111.249C179.179,111.587 179.097,111.88 179.097,112.13C179.097,112.283 179.133,112.407 179.206,112.504C179.278,112.6 179.391,112.649 179.543,112.649C179.753,112.649 179.962,112.592 180.171,112.48C180.38,112.367 180.581,112.22 180.774,112.039C180.967,111.858 181.148,111.651 181.317,111.418C181.486,111.185 181.635,110.947 181.764,110.706C181.892,110.465 181.997,110.227 182.077,109.994C182.158,109.761 182.202,109.552 182.21,109.367C182.162,109.294 182.119,109.214 182.083,109.125C182.047,109.037 182.029,108.936 182.029,108.824C182.029,108.663 182.073,108.524 182.162,108.407C182.25,108.291 182.387,108.232 182.572,108.232C182.709,108.232 182.819,108.263 182.904,108.323C182.988,108.383 183.055,108.46 183.103,108.552C183.151,108.645 183.183,108.749 183.199,108.866C183.215,108.983 183.224,109.097 183.224,109.21C183.224,109.298 183.217,109.405 183.205,109.53C183.193,109.654 183.179,109.773 183.163,109.886C183.429,110.103 183.71,110.211 184.008,110.211C184.281,110.211 184.521,110.135 184.726,109.982C184.931,109.829 185.11,109.652 185.263,109.451L185.347,109.511C185.186,109.737 184.991,109.934 184.762,110.103C184.533,110.272 184.281,110.356 184.008,110.356C183.831,110.356 183.67,110.326 183.525,110.266C183.38,110.205 183.252,110.131 183.139,110.042C183.018,110.428 182.835,110.79 182.59,111.128C182.345,111.466 182.059,111.758 181.733,112.003C181.408,112.248 181.052,112.441 180.666,112.582C180.279,112.723 179.885,112.793 179.483,112.793C179.049,112.793 178.731,112.685 178.53,112.468C178.329,112.25 178.228,111.973 178.228,111.635C178.228,111.563 178.232,111.494 178.24,111.43C178.248,111.366 178.26,111.313 178.277,111.273L178.252,111.249C178.124,111.442 177.981,111.631 177.824,111.816C177.667,112.001 177.498,112.166 177.317,112.311C177.136,112.456 176.941,112.572 176.732,112.661C176.523,112.749 176.298,112.793 176.056,112.793C175.751,112.793 175.527,112.695 175.387,112.498C175.246,112.301 175.176,112.061 175.176,111.78C175.176,111.522 175.242,111.243 175.375,110.941C175.507,110.64 175.666,110.338 175.851,110.036C176.036,109.735 176.229,109.443 176.43,109.162C176.632,108.88 176.8,108.635 176.937,108.426L178.216,108.377Z" style="fill:white;fill-rule:nonzero;"/>
                </g>
            </g>
        </g>
    </g>
</svg>
